<svg width="56" height="14" viewBox="0 0 56 14" fill="none" xmlns="http://www.w3.org/2000/svg">
<path d="M50.6285 13.8932C49.8247 13.8932 49.0499 13.8 48.3043 13.6136C47.5703 13.4155 46.9878 13.1709 46.5567 12.8796L47.4654 10.9223C47.8965 11.1903 48.4033 11.4116 48.9858 11.5864C49.58 11.7495 50.1625 11.8311 50.7334 11.8311C51.3625 11.8311 51.8052 11.7553 52.0616 11.6039C52.3295 11.4524 52.4635 11.2427 52.4635 10.9747C52.4635 10.7534 52.3586 10.5903 52.1489 10.4854C51.9509 10.3689 51.6829 10.2815 51.3451 10.2233C51.0072 10.165 50.6344 10.1068 50.2266 10.0485C49.8305 9.99028 49.4285 9.91455 49.0208 9.82135C48.613 9.71649 48.2402 9.56504 47.9023 9.36698C47.5645 9.16892 47.2907 8.90096 47.081 8.5631C46.8829 8.22523 46.7839 7.78834 46.7839 7.25242C46.7839 6.65824 46.9528 6.13397 47.2907 5.6796C47.6402 5.22523 48.1412 4.86989 48.7936 4.61358C49.446 4.34562 50.2266 4.21164 51.1353 4.21164C51.7761 4.21164 52.4285 4.28154 53.0926 4.42135C53.7567 4.56115 54.3101 4.76504 54.7528 5.033L53.8441 6.9728C53.3897 6.70484 52.9295 6.52426 52.4635 6.43106C52.0091 6.3262 51.5664 6.27377 51.1353 6.27377C50.5295 6.27377 50.0868 6.35533 49.8072 6.51844C49.5276 6.68154 49.3878 6.89125 49.3878 7.14756C49.3878 7.38057 49.4868 7.55533 49.6849 7.67183C49.8946 7.78834 50.1684 7.88154 50.5062 7.95144C50.8441 8.02135 51.2111 8.08543 51.6072 8.14368C52.015 8.19028 52.4227 8.26601 52.8305 8.37086C53.2383 8.47572 53.6052 8.62717 53.9315 8.82523C54.2693 9.01164 54.5431 9.27378 54.7528 9.61164C54.9625 9.93785 55.0674 10.3689 55.0674 10.9048C55.0674 11.4874 54.8926 12.0058 54.5431 12.4602C54.1936 12.9029 53.6868 13.2524 53.0227 13.5087C52.3703 13.765 51.5722 13.8932 50.6285 13.8932Z" fill="#0066FE"/>
<path d="M41.0973 4.21164C41.8429 4.21164 42.507 4.3631 43.0895 4.66601C43.6837 4.95727 44.1497 5.41164 44.4875 6.02911C44.8254 6.63494 44.9943 7.41552 44.9943 8.37086L44.9943 13.7534L42.2681 13.7534L42.2681 8.79028C42.2681 8.033 42.0992 7.47378 41.7613 7.11261C41.4351 6.75145 40.9691 6.57086 40.3633 6.57086C39.9322 6.57086 39.5419 6.66407 39.1924 6.85047C38.8545 7.02523 38.5866 7.29902 38.3885 7.67183C38.2021 8.04465 38.1089 8.52232 38.1089 9.10484L38.1089 13.7534L35.3827 13.7534L35.3827 4.35144L37.9866 4.35144L37.9866 6.95533L37.4973 6.16892C37.8351 5.53979 38.3186 5.0563 38.9477 4.71843C39.5769 4.38057 40.2934 4.21164 41.0973 4.21164Z" fill="#0066FE"/>
<path d="M30.1264 13.7534L30.1264 4.35146L32.8526 4.35146L32.8526 13.7534L30.1264 13.7534ZM31.4895 3.04078C30.9885 3.04078 30.5807 2.89515 30.2662 2.60388C29.9516 2.31262 29.7943 1.95146 29.7943 1.52039C29.7943 1.08932 29.9516 0.728156 30.2662 0.436894C30.5807 0.145631 30.9885 0 31.4895 0C31.9904 0 32.3982 0.139806 32.7128 0.419418C33.0273 0.68738 33.1846 1.03689 33.1846 1.46796C33.1846 1.92233 33.0273 2.30097 32.7128 2.60388C32.4098 2.89515 32.0021 3.04078 31.4895 3.04078Z" fill="#0066FE"/>
<path d="M25.1075 13.7534V11.9184L24.9328 11.5165L24.9328 8.23106C24.9328 7.64853 24.7522 7.19416 24.391 6.86795C24.0415 6.54174 23.4998 6.37863 22.7658 6.37863C22.2648 6.37863 21.7697 6.46018 21.2803 6.62329C20.8027 6.77475 20.3949 6.98445 20.057 7.25242L19.0784 5.34756C19.591 4.9864 20.2085 4.70678 20.9308 4.50873C21.6532 4.31067 22.3871 4.21164 23.1328 4.21164C24.5658 4.21164 25.6784 4.5495 26.4706 5.22523C27.2629 5.90096 27.659 6.95533 27.659 8.38834L27.659 13.7534L25.1075 13.7534ZM22.2415 13.8932C21.5075 13.8932 20.8784 13.7709 20.3541 13.5262C19.8299 13.2699 19.4279 12.9262 19.1483 12.4951C18.8687 12.0641 18.7289 11.5806 18.7289 11.0446C18.7289 10.4854 18.8629 9.99611 19.1308 9.57669C19.4104 9.15727 19.8473 8.83106 20.4415 8.59805C21.0357 8.35339 21.8104 8.23106 22.7658 8.23106L25.2648 8.23106L25.2648 9.82135L23.0629 9.82135C22.4221 9.82135 21.9794 9.9262 21.7347 10.1359C21.5017 10.3456 21.3852 10.6078 21.3852 10.9223C21.3852 11.2718 21.5192 11.5514 21.7871 11.7612C22.0667 11.9592 22.4454 12.0582 22.9231 12.0582C23.3774 12.0582 23.7852 11.9534 24.1464 11.7437C24.5075 11.5223 24.7697 11.2019 24.9328 10.7825L25.3522 12.0408C25.1541 12.6466 24.793 13.1068 24.2687 13.4213C23.7444 13.7359 23.0687 13.8932 22.2415 13.8932Z" fill="#0066FE"/>
<path d="M11.9573 13.9631C10.9903 13.9631 10.099 13.8116 9.2835 13.5087C8.47961 13.1942 7.77476 12.7514 7.16893 12.1806C6.57476 11.6097 6.10874 10.9398 5.77088 10.1709C5.44466 9.40193 5.28156 8.55727 5.28156 7.63688C5.28156 6.71649 5.44466 5.87183 5.77088 5.1029C6.10874 4.33397 6.58058 3.66407 7.18641 3.09319C7.79223 2.52232 8.50291 2.08543 9.31845 1.78251C10.134 1.46795 11.0311 1.31067 12.0097 1.31067C13.0932 1.31067 14.066 1.49125 14.9282 1.85242C15.8019 2.21358 16.5359 2.73785 17.1301 3.42523L15.3126 5.1029C14.8699 4.63688 14.3864 4.29319 13.8621 4.07183C13.3379 3.83882 12.767 3.72232 12.1495 3.72232C11.5553 3.72232 11.0136 3.81552 10.5243 4.00193C10.035 4.18834 9.60971 4.4563 9.24855 4.80581C8.89903 5.15533 8.62524 5.56892 8.42719 6.04659C8.24078 6.52426 8.14757 7.05436 8.14757 7.63688C8.14757 8.20776 8.24078 8.73203 8.42719 9.2097C8.62524 9.68737 8.89903 10.1068 9.24855 10.4679C9.60971 10.8175 10.0291 11.0854 10.5068 11.2718C10.9961 11.4582 11.532 11.5514 12.1146 11.5514C12.6738 11.5514 13.2155 11.4641 13.7398 11.2893C14.2757 11.1029 14.7942 10.7942 15.2951 10.3631L16.9029 12.4078C16.2388 12.9087 15.4641 13.2932 14.5786 13.5612C13.7049 13.8291 12.8311 13.9631 11.9573 13.9631ZM14.3165 12.0408L14.3165 7.44465L16.9029 7.44465L16.9029 12.4078L14.3165 12.0408Z" fill="#0066FE"/>
<circle cx="1" cy="13" r="1" fill="black"/>
<path d="M0 1H2L1.33333 10H0.666667L0 1Z" fill="black"/>
</svg>
