<svg xmlns="http://www.w3.org/2000/svg" width="16" height="16" viewBox="0 0 16 16" fill="none">
  <path d="M8.67573 14.6524C7.70874 14.6524 6.81748 14.501 6.00194 14.1981C5.19806 13.8835 4.4932 13.4408 3.88738 12.8699C3.2932 12.299 2.82718 11.6291 2.48932 10.8602C2.16311 10.0913 2 9.2466 2 8.32621C2 7.40583 2.16311 6.56116 2.48932 5.79223C2.82718 5.0233 3.29903 4.3534 3.90485 3.78252C4.51068 3.21165 5.22136 2.77476 6.03689 2.47184C6.85243 2.15728 7.74951 2 8.72816 2C9.81165 2 10.7845 2.18058 11.6466 2.54175C12.5204 2.90291 13.2544 3.42718 13.8485 4.11456L12.0311 5.79223C11.5884 5.32621 11.1049 4.98252 10.5806 4.76116C10.0563 4.52816 9.48544 4.41165 8.86796 4.41165C8.27379 4.41165 7.73204 4.50485 7.24272 4.69126C6.7534 4.87767 6.32816 5.14563 5.96699 5.49515C5.61748 5.84466 5.34369 6.25825 5.14563 6.73592C4.95922 7.21359 4.86602 7.74369 4.86602 8.32621C4.86602 8.89709 4.95922 9.42136 5.14563 9.89903C5.34369 10.3767 5.61748 10.7961 5.96699 11.1573C6.32816 11.5068 6.74757 11.7748 7.22524 11.9612C7.71456 12.1476 8.25049 12.2408 8.83301 12.2408C9.39223 12.2408 9.93398 12.1534 10.4583 11.9786C10.9942 11.7922 11.5126 11.4835 12.0136 11.0524L13.6214 13.0971C12.9573 13.5981 12.1825 13.9825 11.2971 14.2505C10.4233 14.5184 9.54952 14.6524 8.67573 14.6524ZM11.035 12.7301L11.035 8.13398L13.6214 8.13398L13.6214 13.0971L11.035 12.7301Z" fill="#0066FE"/>
  <path d="M8.92308 10.5384C8.92308 10.7933 8.71644 11 8.46154 11C8.20664 11 8 10.7933 8 10.5384C8 10.2835 8.20664 10.0769 8.46154 10.0769C8.71644 10.0769 8.92308 10.2835 8.92308 10.5384Z" fill="black"/>
  <path d="M8 5H8.92308L8.61538 9.15385H8.30769L8 5Z" fill="black"/>
</svg>